<?xml version="1.0" encoding="UTF-8"?><svg id="Layer_1" xmlns="http://www.w3.org/2000/svg" viewBox="0 0 964.69 808.55"><defs><style>.cls-1{fill:#fff;}</style></defs><path d="M350.82,700.35c-19.33-6.6-38.05-13.78-56.02-23.45-43.62-23.48-81.72-50.67-116.31-86.25-22.91-23.56-43.04-48.84-58.7-77.84-34.7-64.25-34.12-140.25.03-204.33,14.82-27.81,33.14-51.83,54.74-74.68,21.89-23.16,44.74-44.88,71.05-62.79l22.46-15.28,26.15-15.94c25.69-15.66,52.73-27.38,81.03-38.02,22.19-8.34,44.34-14.58,67.2-20.85,8.14-2.23,55.29-11.25,65.08-12.52l12.86-1.66,19.45-2c4.8-.49,9.67-1.13,14.53-1.13l56.82-.09c3.33,0,7.13.32,10.42.73l29.42,3.72c-3.38,2.03-6.43,2.58-9.95,3.62l-33.34,9.81c-49.11,14.45-110.85,46.02-149.69,79.69-29.83,25.85-55.77,61.03-69.5,98.15-5.62,15.19-9.31,30.59-11.48,46.66-.49,3.64-.41,7.77-.65,11.38-1.7,25.17,3.35,49.22,12.08,72.65,8.11,21.76,20.13,40.1,35.25,57.57,12.66,14.63,26,27.58,41.34,39.46,13.81,10.7,27.12,20.31,43.72,28.15l-18.76,25.75-15.85,20.47c-.71.92-3.32-.16-4.06-.8l-12.59-10.99-18.68-17.75c-8.26-7.85-16.24-15.5-23.92-23.88l-19.3-21.04c-6.73-7.34-12.76-15.12-19.08-22.88-1.79-2.2-2.32-5.31-5.71-6.3,11.26,43.96,39.49,79.18,72.14,109.27l13.95,12.86c-7.18,11.18-14.49,22-22.94,32.32-6.14,7.5-11.31,14.61-17.26,22.83-39.68-20.56-67.44-39.94-99.57-71.43-9.84-9.64-17.53-19.69-25.49-30.91-27.43-38.63-41.55-84.46-39.26-131.96l.64-13.26c.22-4.51.88-8.82,1.63-13.24l2.06-12.11c1.98-11.63,5.96-22.31,9.95-33.47,4.74-13.27,12.53-24.11,19.59-37.15-19.15,12.47-38.25,40.96-46.16,61.34-10.28,26.45-13.45,59.19-9.59,87.17l1.39,10.09c4.14,29.97,19.96,65.81,38.25,90.15,9.29,12.36,18.54,24.26,29.48,35.16,16.85,16.79,34.42,31.23,54.22,44.28,21.31,14.05,42.14,26.66,65.63,37.98l9.06-11.44,39.4-51.45,60.39-77.25,25.5-32.81,32.34-42.62,29.4-39.36-66.78.26-60.12.6c-.89,0-2.22.48-2.54.6s-.31-1.21-.34-1.95c5.34-3.11,11.09-6.56,16.17-10.69,15.47-12.58,29.51-25.71,43.74-39.64l31.68-31.01c4.02-3.93,7.84-7.6,11.81-11.6l22.86-23.01,29.96-30.15,18.48-18.93c2.33-2.38,4.46-5,6.96-7.15,4-3.43,7.07-7.17,10.76-10.9l42.72-43.22,26.7-26.83,12.26-12.28,73.75-73.06,15.17-14.22,14.22-13.92c.31-.3,1.49-.95,1.68-1.1s.2,1.44.05,1.66l-7.5,11.47-14.18,22.44-14.12,22.46-14.28,22.4-45.72,69.53-38.66,58.9-37.63,56.75-11.21,16.84c13.91.41,25.88.28,38.99-.16l28.11-.94,26.05-1.05c10.91-.44,21.14-.4,32.99-.24l-38.56,36.89-65.88,61.35-26.38,24.34-35.17,32.27-69.57,63.38-20.41,19.18-28.47,27.61-12.65,11.73-22.58,20.6-26.26,26.11c-4.58,4.56-9.18,8.67-13.47,13.66-7.49,8.72-15.33,12.54-10.81,14.55l14.38,6.38c35.18,15.6,80.68,30.17,118.39,38.86,48.66,11.21,97.47,16.15,147.23,18.53,16.38.78,32.05,1.22,48.42.09l28.02-1.95,16.89-1.79,17.32-2.3c28.6-3.8,56.1-11.16,82.97-21.7,4.96-1.94,9.3-.87,12.66,3.5,4.82,6.27,5.19,14.8,1.9,22.49-4.1,9.59-12.77,16.26-22.4,20.64-22.89,10.41-62.7,17.96-87.96,20.3l-22.29,2.07-18.61,1.06-15.07.85c-14.18.8-28.06,1.38-42.15.07l-10.34-.96-18.71-.94-24-2.11c-23.41-2.05-46.1-5.09-69.06-10.03l-36.39-7.83c-47.45-10.21-108.34-32.57-152.62-54.2-10.65,10.55-21.12,19.85-33.86,27.75-.64-.43-1.73-1.42-1.33-1.32l21.06-33.22c-4.2-3.04-8.77-5.51-13.68-8.12-15.47-8.22-30.5-16.34-44.89-26.29-11.8-8.16-23.34-15.64-34.43-24.68l-19.55-15.94-21.58-18.25c6.83,10.23,14.01,19.81,22.17,28.84l24.96,27.66c14.6,16.19,31.61,29.62,49.35,42.2,1.19.84,7.46,6.1,7.35,7.14M541.28,378.04c33.56.32,54.51.82,86.41-5,4.14-.76,8.28-.52,11.77-4.61l-19.68-1.93-19.73-1.88-20.3-1.9,34.38-37.05,22.87-24.9,38.78-42.67,31.03-34.73,21.31-24.58,30.08-35.43,22.28-27.38,15.62-19.18c6.79-8.34,13.73-16.07,19.98-25.51-7.27,3.07-10.46,9.91-15.54,15.05l-13.46,13.62-12.3,13.13-12.18,12.16c-5.43,5.42-10.27,10.78-15.37,16.52-4.27,4.8-8.8,9.28-13.22,13.9l-18.36,19.19-6.8,7.21-15.48,16.29-15.04,15.88-16.44,17.34-28.08,29.01-29.13,30.06-15.84,16.8-17.34,18.37-20.29,20.91-9.96,11.3ZM199.14,268.05c8.67-4.87,12.64-11.79,18.58-17.32,9.38-10.91,19.95-19.78,30.55-29.49s22.69-18.65,35.57-26.44l33.89-20.51c36.43-22.05,65.56-31.49,104.56-46.31l50.78-19.3,8.33-3c6.29-2.27,11.94-4.38,17.92-7.91-5,.2-8.49.76-12.51,1.52l-10.24,1.93-20.76,4.3c-29.46,6.11-74.13,20.98-101.31,34.44l-21.37,10.57c-17.24,8.53-33.18,17.83-49.38,28.41-16.7,10.91-32.09,22.25-46.3,36.23-13.91,13.67-32.32,34.43-38.28,52.91Z"/><path d="M842.28,698.78c-12.93,0-24.25-.24-30.26-.65l-21.91-1.48c-.17-.01-.34-.03-.5-.04l-43.25-4.4c-.19-.02-.38-.04-.56-.07l-11.82-1.66c-.16-.02-.32-.05-.48-.08l-9.49-1.65c-30.26-5.25-61.54-13.46-95.63-25.09-24.77-8.45-47.22-18.48-70.99-29.1l-5.02-2.24c-8.48-3.79-15.22-8.09-21.73-12.25l-15.4-9.84c-3.84-2.45-6.35-6.51-6.84-11.04-.48-4.53,1.11-9.03,4.34-12.24,5.73-5.69,10.74-9.98,16.05-14.52l2.14-1.83,34.84-29.9c2.77-2.38,6.25-3.62,9.77-3.62,2,0,4.02.4,5.93,1.22l29.75,12.82c10.52,4.53,19.17,7.45,27.54,9.27,4.75-1.46,9.71-3.51,14.12-5.38,22.04-9.36,44.93-14.1,68.03-14.1,15.85,0,31.69,2.27,47.09,6.74,19.13,5.56,35.99,13.59,54.47,22.74,4.96,2.46,9.87,3.71,14.58,3.71,3.64,0,7.25-.76,10.72-2.27,13.69-5.93,23.52-13.69,33.02-21.19,9.51-7.51,19.35-15.27,31.96-20.08,3.21-1.23,6.74-1.87,10.19-1.87,10.42,0,19.31,5.85,22.64,14.91,1.87,5.08,3.62,10.52,3.79,15.85.34,10.92.54,22.7-.24,34.86l-1.95,30.63c-.79,12.41-1.61,25.23-4.67,38.6-1.92,8.39-7.82,15.73-9.58,17.78-10.14,11.8-29.13,13.88-44.38,15.55-1.65.18-3.21.35-4.65.53-10.22,1.25-32.52,1.38-41.64,1.38Z"/><path class="cls-1" d="M922.96,543.69c3.7,0,7.26,1.55,8.56,5.08,1.19,3.24,2.77,7.79,2.87,11.14.35,11.42.5,22.26-.21,33.44l-1.95,30.63c-.78,12.24-1.55,24.11-4.32,36.21-.87,3.82-3.77,8.37-6.33,11.35-7.18,8.35-27.43,9.49-39.48,10.96-7.31.89-24.15,1.27-39.82,1.27-12.09,0-23.48-.23-29.25-.62l-21.91-1.48-43.25-4.4-11.82-1.66-9.49-1.65c-31.99-5.55-62.6-14.02-93.35-24.51-25.87-8.82-49.92-19.77-74.74-30.84-7.36-3.28-13.2-7-19.76-11.19l-15.4-9.84c6.08-6.04,11.45-10.51,17.39-15.61l34.84-29.9,29.75,12.82c11.07,4.77,22.12,8.7,34.04,10.91,6.5-1.63,13.18-4.34,19.42-6.98,20.02-8.5,41.01-12.91,62.17-12.91,14.31,0,28.69,2.01,42.91,6.14,18.33,5.32,34.91,13.32,52,21.78,6.84,3.39,14.01,5.26,21.23,5.26,5.57,0,11.17-1.11,16.69-3.51,29.69-12.87,42.51-32.67,64.37-41.01,1.52-.58,3.19-.89,4.84-.89M922.96,513.69c-5.27,0-10.64.99-15.54,2.86-14.75,5.63-25.5,14.11-35.9,22.32-9.16,7.22-17.8,14.04-29.7,19.2-1.6.69-3.15,1.03-4.76,1.03-2.38,0-5.04-.72-7.92-2.15-19.14-9.48-36.64-17.81-56.95-23.71-16.76-4.87-34.01-7.33-51.27-7.33-25.13,0-49.99,5.14-73.89,15.29-2.85,1.21-5.96,2.5-8.96,3.6-6.27-1.64-12.97-4.04-20.91-7.46l-29.75-12.82c-3.82-1.64-7.86-2.45-11.86-2.45-7.04,0-14,2.48-19.54,7.23l-34.84,29.9-2.12,1.82c-5.28,4.52-10.74,9.19-16.87,15.28-6.46,6.42-9.65,15.42-8.68,24.48s6,17.18,13.67,22.08l15.4,9.84c6.97,4.46,14.19,9.07,23.7,13.31l5,2.23c23.04,10.29,46.86,20.93,72.28,29.61,34.84,11.88,66.86,20.28,97.9,25.67l9.49,1.65c.32.06.65.11.97.15l11.82,1.66c.37.05.75.1,1.12.14l43.25,4.4c.34.03.67.06,1.01.09l21.91,1.48c6.33.43,18.03.69,31.27.69,9.39,0,32.42-.15,43.46-1.49,1.38-.17,2.89-.33,4.47-.51,16.93-1.85,40.12-4.39,54.12-20.68,2.99-3.47,10.21-12.78,12.83-24.21,3.33-14.54,4.19-27.99,5.02-40.99l1.95-30.63c.82-12.8.61-25,.26-36.28-.23-7.48-2.51-14.6-4.71-20.57-5.52-15.02-19.94-24.72-36.72-24.72h0Z"/><path d="M735.2,793.55c-7.12,0-13.61-.28-19.83-.86l-9.93-.92-18.38-.93c-.19,0-.37-.02-.56-.04l-24.08-2.11c-26.66-2.34-49.37-5.64-71.45-10.4l-36.39-7.83c-42.55-9.16-98.29-28.42-144.77-49.89-7.44,6.78-16.55,14.27-27.36,20.96l-2.47,1.53c-2.42,1.5-5.16,2.25-7.89,2.25-2.94,0-5.87-.86-8.4-2.57l-2.4-1.62c-8.69-5.87-10.76-14.02-9.74-20.53l-5.55-1.36c-.43-.11-.86-.23-1.28-.38l-.19-.06c-17.6-6.01-38.37-13.65-58.96-24.74-48.25-25.97-86.71-54.51-121.04-89.82-26.49-27.24-46.73-54.12-61.87-82.16-37.42-69.28-37.43-152.55-.02-222.75,14.82-27.81,33.18-52.88,57.77-78.9,18.48-19.55,43.62-44.67,74.25-65.51l22.55-15.34c.21-.14.42-.28.63-.41l26.25-16c23.47-14.3,49.47-26.52,84.31-39.62,22.75-8.55,44.66-14.75,68.9-21.4,9.33-2.56,57.7-11.75,67.74-13.05l12.97-1.67c.13-.02.26-.03.38-.04l19.45-2c.8-.08,1.6-.17,2.4-.26,4.25-.46,9.05-.97,14.09-.98l56.82-.09c3.87,0,8.32.31,12.9.89l42.24,5.34c6.34.8,11.48,5.54,12.79,11.79,1.32,6.25-1.47,12.66-6.95,15.95l-11.08,6.66c-4.99,3-9.46,4.22-12.73,5.12-.58.16-1.16.32-1.75.49l-33.34,9.81c-49.08,14.44-107.65,45.58-142.43,75.72-28.65,24.83-51.97,57.7-63.99,90.19-4.98,13.48-8.4,27.38-10.44,42.51-.18,1.32-.24,3.32-.31,5.26-.05,1.47-.1,3.14-.22,4.83-1.36,20.12,2.2,41.22,10.89,64.54,6.68,17.93,16.76,34.33,31.73,51.62,12.28,14.2,24.89,26.23,38.54,36.8,14.29,11.06,25.98,19.26,40.11,25.93l1.55.73,19.78-25.45,32.23-42.47,5.98-8-27.74.11-57.71.58c-1.26.37-2.54.58-3.87.6,0,0-1.2.02-1.21.02-9.48,0-19.31-7-19.75-20.37l-.14-2.79c-.29-5.61,2.58-10.91,7.44-13.74l2.36-1.37c4.71-2.74,9.65-5.69,13.68-8.96,16.28-13.24,30.57-26.87,42.41-38.45l31.68-31.01c1.05-1.03,3.36-3.28,3.36-3.28,2.82-2.75,5.48-5.33,8.26-8.13l22.86-23.01,29.92-30.1,18.4-18.85c.64-.66,1.25-1.33,1.87-2,1.82-1.98,3.82-4.16,6.35-6.33,1.81-1.55,3.55-3.42,5.57-5.58,1.19-1.28,2.54-2.73,4.02-4.23l42.72-43.22,26.75-26.87,12.29-12.3,73.91-73.21c.1-.1.2-.19.3-.29l15.01-14.07,14.08-13.78c1.46-1.43,2.9-2.41,4.18-3.2l.41-.31c2.6-2.02,5.8-3.12,9.09-3.15,0,0,1.63-.01,1.66-.01h2.67c5.46,0,10.5,2.97,13.13,7.76,0,0,1.35,2.45,1.37,2.49,3.53,6.53,3.19,15.39-.84,21.55l-7.44,11.38-14.08,22.28-14.1,22.42s-14.42,22.62-14.45,22.68l-45.76,69.58-38.64,58.89-28.74,43.35c.65-.02,30.01-1,30.01-1l25.99-1.05c6.18-.25,12.48-.37,19.8-.37,4.01,0,8.39.03,14.23.11l10.95.14c6.09.08,11.53,3.83,13.76,9.5,2.23,5.67.81,12.12-3.59,16.33,0,0-46.57,44.55-46.62,44.6l-65.93,61.4-26.44,24.4-35.21,32.3-69.53,63.35-20.19,18.98-28.41,27.55c-.08.08-.16.16-.25.23,0,0-12.71,11.78-12.74,11.81l-22.3,20.34-25.97,25.81c-1.29,1.28-2.58,2.53-3.87,3.78l-.16.16c-1.01.97-1.97,1.9-2.9,2.81,31.36,13.1,71.06,25.83,106.07,33.9,41.78,9.63,87.47,15.36,143.79,18.05,7.8.37,17.04.75,26.46.75,7.03,0,13.47-.21,19.68-.64l27.67-1.92,16.28-1.73,17.07-2.27c26.55-3.53,52.21-10.24,78.43-20.53,3.84-1.51,7.76-2.28,11.63-2.28,9.24,0,17.61,4.28,23.58,12.04,8.98,11.68,10.61,27.39,4.36,42.01-5.56,13.02-16.71,23.65-32.25,30.71-25.1,11.42-66.44,19.39-94.23,21.97l-22.37,2.08c-.18.02-.36.03-.54.04l-33.76,1.92c-8.02.46-16.63.88-25.22.88Z"/><path class="cls-1" d="M867.45,30l1.31,2.38c.82,1.52.91,4.5-.21,6.21l-7.5,11.47-14.14,22.38-14.12,22.45-14.29,22.42-45.76,69.58-38.65,58.9-37.64,56.77-6.7,10.07c2.8.04,5.58.06,8.38.06,6.93,0,13.99-.13,22.23-.4l28.11-.94,26.02-1.05c5.98-.24,12.08-.35,19.19-.35,3.93,0,8.25.03,14.03.11l10.95.14-46.47,44.46-65.93,61.4-26.39,24.35-35.18,32.28-69.58,63.39-20.36,19.13-28.49,27.63-12.65,11.73-22.53,20.56-26.2,26.04c-1.3,1.29-2.59,2.54-3.89,3.79-3.28,3.17-6.39,6.17-9.34,9.61-2.83,3.29-5.64,5.87-7.89,7.94-.38.34-.77.71-1.17,1.08l11.05,4.9c33.29,14.76,78.34,29.54,117.58,38.59,42.68,9.83,89.21,15.69,146.44,18.42,7.99.38,17.46.77,27.17.77,7.37,0,14.15-.22,20.73-.68l27.93-1.94,16.75-1.78,17.26-2.29c27.78-3.69,54.57-10.7,81.93-21.43,2.1-.82,4.17-1.24,6.16-1.24,3.17,0,7.76,1.07,11.69,6.18,5.63,7.32,6.55,17.41,2.46,26.98-4.07,9.53-12.6,17.46-24.67,22.95-22.47,10.22-61.98,18.14-89.4,20.69l-22.37,2.08-33.76,1.92c-7.79.44-16.14.85-24.37.85-6.65,0-12.68-.26-18.44-.8l-10.25-.95-18.69-.94-24.08-2.11c-26.03-2.28-48.15-5.5-69.61-10.12l-36.39-7.83c-44.65-9.61-103.48-30.37-150.79-53.17-8.78,8.57-19.39,18.09-32.39,26.15l-2.46,1.52-2.4-1.62c-1.05-.71-4.25-2.87-3.19-6.33l.97-3.17h.93s17.41-27.48,17.41-27.48c-2.92-1.83-6.07-3.54-9.67-5.45-16.37-8.7-31.08-16.7-45.34-26.56-2.53-1.75-5.04-3.46-7.54-5.17-9.42-6.43-18.31-12.5-27.17-19.72l-8.14-6.63,20.28,22.48c15.7,17.4,34.23,31.34,48.62,41.55.81.57,2.84,2.25,4.58,3.84,3.41,3.1,4.89,4.91,4.63,7.42l-.53,5.11-15.96-3.91-.19-.06c-17.02-5.81-37.07-13.18-56.7-23.75-46.86-25.23-84.17-52.89-117.39-87.07-25.51-26.24-44.95-52.02-59.43-78.83-35.03-64.85-35.02-142.82.02-208.56,14.17-26.59,31.79-50.63,55.44-75.65,17.96-19,42.35-43.39,71.79-63.41l22.55-15.34,26.25-16c22.63-13.79,47.86-25.63,81.78-38.39,22.16-8.33,43.72-14.43,67.59-20.98,8.7-2.39,56.22-11.41,65.69-12.64l12.97-1.67,19.45-2c.82-.08,1.65-.17,2.48-.26,4.06-.44,8.25-.89,12.51-.9l56.82-.09c3.2,0,7.07.27,10.99.77l42.24,5.34-11.08,6.66c-3.22,1.93-6.14,2.73-8.97,3.51-.66.18-1.33.36-2.01.57l-33.34,9.81c-50.92,14.98-111.79,47.38-148.02,78.78-30.5,26.43-55.37,61.54-68.23,96.32-5.37,14.52-9.05,29.47-11.24,45.71-.28,2.07-.36,4.46-.43,6.78-.05,1.43-.09,2.9-.19,4.31-1.5,22.28,2.36,45.43,11.81,70.78,7.33,19.66,18.27,37.51,34.44,56.2,12.94,14.95,26.25,27.66,40.69,38.85,15.09,11.68,27.53,20.38,42.89,27.64l4.89,2.31-22.02,30.23-15.85,20.47c-1.04,1.35-2.64,2.09-4.49,2.09-2.25,0-4.8-1.17-6.06-2.26l-12.66-11.06-18.74-17.82c-8.69-8.26-16.51-15.78-24.14-24.1l-19.3-21.04c-3.47-3.78-6.77-7.7-9.98-11.62,11.87,29.09,32.52,56.69,63.66,85.39l16.72,15.41-2.03,3.16c-6.4,9.97-14.17,21.65-23.24,32.73-5.89,7.2-10.8,13.92-17.1,22.62l-2.26,3.13-3.43-1.77c-41.17-21.33-69.39-41.57-100.65-72.2-9.9-9.7-17.56-19.62-26.01-31.52-28.53-40.18-42.39-86.78-40.08-134.77l.64-13.26c.24-4.97,1-9.72,1.69-13.77l2.06-12.11c1.92-11.29,5.55-21.41,9.39-32.13l.75-2.1c1.49-4.16,3.24-8.05,5.15-11.82-10.05,12.4-18.68,27.16-23.34,39.14-9.73,25.03-13.22,56.78-9.33,84.93l1.39,10.09c3.88,28.07,18.91,63.47,37.4,88.08,8.66,11.53,18.05,23.7,29.06,34.68,16.82,16.76,34.33,31.06,53.53,43.72,23.29,15.35,42.54,26.59,61.9,36.12l6.83-8.62,39.36-51.39,60.42-77.28,25.49-32.8,32.31-42.58,24.01-32.15-57.81.22-60.01.6c-.11.02-.44.08-1.15.33l-.72.25s-.84.02-.84.02c-1.38,0-4.59-.57-4.76-5.87v-.33s-.15-2.73-.15-2.73l2.36-1.37c5.23-3.04,10.74-6.34,15.6-10.29,16.76-13.63,31.36-27.55,43.43-39.36l31.68-31.01c1.12-1.1,2.23-2.18,3.33-3.25,2.88-2.8,5.6-5.45,8.43-8.31l22.86-23.01,29.97-30.15,18.45-18.9c.75-.77,1.48-1.57,2.22-2.36,1.56-1.7,3.17-3.45,5.04-5.05,2.45-2.1,4.56-4.37,6.79-6.76,1.18-1.26,2.4-2.57,3.7-3.89l42.72-43.22,26.71-26.84,12.27-12.28,73.85-73.16,15.13-14.19,14.19-13.89c.53-.52,1.17-.92,2.01-1.43l.2-.12,1.07-.83h1.56s2.67-.01,2.67-.01M217.87,243.84c6.69-7.24,13.89-13.73,20.89-20.03,2.16-1.94,4.32-3.89,6.49-5.88,10.88-9.96,22.74-18.78,36.27-26.97l33.89-20.51c31.45-19.04,58-28.96,88.73-40.45,5.34-2,10.84-4.05,16.55-6.22l37.25-14.16-1.25.26c-30.29,6.28-74.32,21.24-100.24,34.06l-21.37,10.57c-16.41,8.12-31.95,17.06-48.92,28.14-19.21,12.55-33.28,23.55-45.61,35.67-6.22,6.11-15.03,15.35-22.7,25.51M564.55,373.74c17.99,0,32.85-.57,50.65-3.17l-15.58-1.48-29.33-2.74,40.56-43.71,22.86-24.88,38.77-42.65,31-34.7,21.27-24.53,30.02-35.35,3.26-4c-2.58,2.8-5.05,5.56-7.43,8.24-3.06,3.44-6.26,6.74-9.36,9.92-1.32,1.36-2.65,2.72-3.96,4.1l-18.36,19.19-6.77,7.19-15.49,16.31-15.04,15.88-16.44,17.34-28.11,29.04-29.14,30.07-15.8,16.75-17.34,18.38-20.26,20.88-3.42,3.88c4.67.04,9.16.08,13.45.08M867.45,0h-2.67c-.07,0-.13,0-.2,0h-1.56c-6.51.05-12.82,2.21-17.99,6.15-1.59,1.02-3.81,2.58-6.08,4.81l-13.95,13.66-14.89,13.96c-.2.19-.4.38-.6.57l-73.85,73.16s-.08.08-.11.11l-12.27,12.28s-.02.02-.04.04l-26.71,26.84s-.05.05-.07.07l-42.72,43.22c-1.62,1.64-3.05,3.18-4.31,4.53-1.71,1.84-3.19,3.43-4.37,4.44-3.21,2.75-5.74,5.51-7.59,7.52l-.04.05c-.58.63-1.13,1.23-1.55,1.66l-18.36,18.81-29.86,30.04-22.87,23.02c-2.65,2.67-5.27,5.22-8.04,7.92-1.15,1.12-2.28,2.22-3.42,3.34l-31.68,31.01c-11.59,11.34-25.56,24.67-41.38,37.53-3.18,2.59-7.55,5.19-11.75,7.63l-2.36,1.37c-9.72,5.65-15.46,16.26-14.88,27.48l.13,2.51v.06c.69,19.86,15.62,34.82,34.75,34.82,0,0,1.55-.03,1.55-.03,1.87-.03,3.67-.24,5.44-.62l53.31-.53-19.88,26.2-12.11,15.59c-9.18-5.2-17.77-11.41-28.25-19.52-12.85-9.95-24.75-21.32-36.38-34.76-13.76-15.9-22.98-30.85-29.01-47.05-7.93-21.28-11.2-40.34-9.98-58.28.13-1.92.19-3.73.24-5.32.04-1.27.1-3.13.18-3.79,1.89-14.01,5.05-26.87,9.65-39.3,11.17-30.2,32.94-60.83,59.74-84.06,32.8-28.43,90.35-58.99,136.84-72.67l33.34-9.81c.5-.15.98-.28,1.45-.41,3.66-1,9.76-2.67,16.52-6.73l11.08-6.66c10.96-6.58,16.54-19.39,13.91-31.9-2.63-12.51-12.91-21.98-25.59-23.58l-42.24-5.34c-5.19-.66-10.29-1-14.75-1l-56.87.09c-5.84,0-11.06.57-15.67,1.07l-.15.02c-.73.08-1.46.16-2.19.23l-19.45,2c-.26.03-.51.06-.77.09l-12.97,1.67c-10,1.29-58.84,10.46-69.79,13.46-24.6,6.75-46.86,13.05-70.21,21.83-35.76,13.44-62.54,26.04-86.84,40.85l-26.25,16c-.43.26-.85.53-1.26.81l-22.55,15.34c-31.82,21.65-57.72,47.51-76.72,67.61-25.54,27.02-44.64,53.12-60.11,82.15-39.78,74.64-39.76,163.21.06,236.93,15.81,29.28,36.85,57.24,64.32,85.49,35.43,36.44,75.05,65.85,124.68,92.57,20.64,11.11,41.23,18.84,58.9,24.93,2.16,8.35,7.52,15.94,15.53,21.35l2.4,1.62c5.07,3.42,10.93,5.14,16.8,5.14,5.47,0,10.95-1.49,15.79-4.49l2.46-1.52c8.32-5.15,15.66-10.69,22.06-16.06,45.81,20.45,97.49,37.96,139.02,46.9l36.39,7.83c22.71,4.89,46,8.28,73.3,10.67l24.08,2.11c.37.03.74.06,1.11.08l18.06.91,9.61.89c6.69.62,13.63.92,21.22.92,8.97,0,17.83-.43,26.07-.9l33.76-1.92c.36-.02.71-.05,1.07-.08l22.37-2.08c29-2.69,72.37-11.11,99.05-23.25,19-8.64,32.77-21.95,39.83-38.47,8.41-19.68,6.07-41.01-6.27-57.05-8.74-11.37-21.67-17.89-35.47-17.89-5.75,0-11.51,1.11-17.12,3.31-25.07,9.83-49.58,16.25-74.92,19.62l-16.87,2.24-15.81,1.68-27.39,1.9c-5.88.41-11.98.61-18.65.61-9.08,0-18.11-.37-25.74-.74-55.4-2.65-100.25-8.27-141.14-17.69-26.74-6.16-56.25-15.09-82.47-24.8l16.28-16.18,22.06-20.13c.06-.05.12-.11.17-.16l12.65-11.73c.17-.15.33-.31.49-.47l28.32-27.47,20.02-18.82,69.4-63.23s.05-.05.08-.07l35.18-32.28s.04-.04.06-.06l26.39-24.35s.07-.06.1-.09l65.93-61.4c.1-.09.2-.18.29-.28l46.47-44.46c8.8-8.42,11.64-21.33,7.18-32.67-4.46-11.34-15.34-18.85-27.52-19.01l-10.95-.14c-5.89-.08-10.33-.11-14.42-.11-7.53,0-14.01.12-20.41.38l-25.93,1.05-.88.03,12.62-19.04s.05-.08.08-.12l38.65-58.9,45.74-69.56c.08-.12.16-.24.23-.36l14.29-22.42c.03-.05.06-.1.1-.15l14.12-22.45,13.98-22.13,7.38-11.28c7.02-10.76,7.61-25.58,1.48-36.91-.04-.07-.07-.13-.11-.2l-1.31-2.38c-5.28-9.57-15.34-15.51-26.27-15.51h0Z"/><path d="M787.95,705.97l-18.59,1.55-38.54.84c-19.29.42-48.24.88-67.07-.82l-18.73-1.69c-14.86-1.34-28.85-3.66-43.52-6.09-41.07-6.81-80.64-17.7-118.82-34.49l-23.01-10.12,14.88-12.94,20.4-17.74,12.21-10.25c16.05,10.27,32.19,17.92,49.15,26.17,25.36,12.33,50.38,22.81,77.42,31.14,24.53,7.55,48.32,13.78,73.53,18.27l9.77,1.74,11.21,1.88,11.24,1.77,19.82,3.08,15.12,1.67,19.69,1.97c3.19.32,6.03.75,9.43,1.71-5.02.93-9.81,1.86-15.58,2.34Z"/><path d="M400.87,767.58c-.52,0-1.06-.04-1.58-.11-99.47-14.07-153.81-44.4-238.01-107.06-.35-.26-.69-.55-1-.86l-21.44-21.49c2.04,3.53,3.86,6.91,5.66,10.48,1.86,3.69.97,8.18-2.16,10.88-1.68,1.45-3.77,2.18-5.88,2.18-1.82,0-3.64-.55-5.2-1.66-8.33-5.9-14.63-12.64-20.71-19.15-1.24-1.33-2.49-2.66-3.76-4-9.21-9.68-19.01-20.29-28.23-32.31-35.39-46.11-55.98-89.48-64.8-136.49-5.5-29.31-6.26-58.84-2.15-83.15l1.77-10.49c8.31-49.12,35.46-103.58,74.47-149.42,23.15-27.21,48.67-50.57,78.01-71.41,30.55-21.71,59.7-37.9,89.11-49.51l.47-.18c8.94-3.53,17.38-6.86,28.13-8.36.42-.06.83-.09,1.24-.09,2.81,0,5.48,1.31,7.2,3.6,1.97,2.62,2.35,6.1,1.02,9.08-8.63,19.26-33.54,39.16-48.43,51.04l-41.61,33.23c-8.75,6.99-16.57,14.19-24.86,21.81l-1.66,1.53c-54.92,50.49-86.81,107.17-94.77,168.46l-1.56,11.99c-1.61,12.38-1.71,23.74-.31,35.74l.48,4.17c1,8.77,1.94,17.05,3.68,25.59,3.91,19.21,9.04,34.9,16.17,49.36,30.81,62.59,84.98,111.06,125.01,140.71l17.94,13.29c36.91,27.33,101.73,63.89,149.18,77.78l11.61,3.4c5.27,1.54,8.53,6.6,7.75,12.03-.78,5.45-5.31,9.4-10.78,9.4Z"/><path class="cls-1" d="M284.81,104.36h0M284.81,104.36c-7.71,17.21-31.39,36.16-45.83,47.69l-41.61,33.23c-9.58,7.65-17.92,15.4-26.99,23.74-50.81,46.71-88.57,104.38-97.61,173.92l-1.56,11.99c-1.69,12.97-1.83,25.03-.33,37.94,1.2,10.32,2.18,20.2,4.28,30.52,3.68,18.1,8.78,35.02,16.91,51.54,28.06,57.01,77.2,106.54,127.73,143.96,5.74,4.25,12.22,9.05,17.94,13.29,39.23,29.06,104.67,65.32,152,79.19l11.61,3.4c2.19.64,1.62,3.79-.5,3.79-.1,0-.21,0-.32-.02-97.24-13.75-150.61-43.38-233.89-105.37l-32.77-32.85-14.43-14.61-14.05-15.83c-2.3-2.59-3.38-5.58-6.66-7.41.41,2.94,1.03,5.46,2.26,7.83,7.81,14.99,15.84,29.26,24.79,43.52,3.88,6.19,7.22,11.89,10.68,18.74-9.18-6.5-15.71-14.19-23.16-22.01-9.79-10.28-18.91-20.25-27.61-31.58-30.79-40.12-53.66-82.41-63.09-132.67-4.79-25.51-6.43-54.53-2.12-79.99l1.78-10.49c8.89-52.54,38.25-104.9,72.45-145.09,22.72-26.7,47.84-49.64,76.37-69.91,27.35-19.43,55.98-36.15,87.2-48.48,8.79-3.47,16.67-6.63,26.53-8M284.82,86.36c-.24,0-.47,0-.71.01-.72.03-1.42.1-2.12.21-11.65,1.67-20.9,5.32-29.85,8.85l-.47.19c-30.1,11.88-59.87,28.41-91.02,50.55-29.96,21.29-56.01,45.14-79.65,72.92-18.64,21.9-35.24,46.56-48.01,71.33-14.36,27.84-23.94,55.57-28.48,82.42l-1.78,10.49c-4.29,25.33-3.51,55.98,2.18,86.31,9.09,48.45,30.23,93.04,66.51,140.31,9.48,12.36,19.47,23.18,28.85,33.03,1.26,1.32,2.48,2.63,3.7,3.94,6.39,6.84,13,13.92,22.09,20.35,3.13,2.22,6.77,3.31,10.4,3.31,4.2,0,8.39-1.47,11.75-4.36,1.1-.95,2.06-2.01,2.88-3.15l2.82,2.82c.62.62,1.29,1.2,2,1.73,35.35,26.31,73.73,53.32,114.81,72.63,38.15,17.93,77.42,29.07,127.31,36.13.94.13,1.9.2,2.84.2,9.99,0,18.27-7.2,19.69-17.12,1.42-9.9-4.52-19.13-14.13-21.94l-11.61-3.4c-46.44-13.6-110.07-49.5-146.35-76.38l-14.26-10.56-3.68-2.73c-39.22-29.05-92.28-76.48-122.29-137.45-6.77-13.76-11.67-28.75-15.42-47.18-1.66-8.16-2.58-16.25-3.56-24.82-.16-1.39-.32-2.78-.48-4.19-1.31-11.26-1.21-21.92.3-33.55l1.56-11.99c7.69-59.13,38.62-113.97,91.94-162.99l1.67-1.53c8.16-7.51,15.87-14.6,24.37-21.39l41.61-33.23c20.82-16.63,41.87-34.47,50.79-53.89,1.16-2.38,1.81-5.05,1.81-7.87,0-9.71-7.69-17.62-17.31-17.99-.23,0-.46-.01-.69-.01h0ZM284.81,122.36h0,0Z"/></svg>